HIERARCHY
ROOT Hips
{
    OFFSET 0.000000 0.000000 0.000000
    CHANNELS 6 Xposition Yposition Zposition Zrotation Xrotation Yrotation
    JOINT Spine
    {
        OFFSET -0.000000 7.236184 0.000000
        CHANNELS 3 Zrotation Xrotation Yrotation
        JOINT Spine1
        {
            OFFSET -0.000000 20.420147 0.000000
            CHANNELS 3 Zrotation Xrotation Yrotation
            JOINT Neck
            {
                OFFSET -0.000000 20.336288 1.848754
                CHANNELS 3 Zrotation Xrotation Yrotation
                JOINT Head
                {
                    OFFSET -0.000000 12.354461 -1.764923
                    CHANNELS 3 Zrotation Xrotation Yrotation
                    End Site
                    {
                        OFFSET -0.000000 22.061537 0.000000
                    }
                }
            }
            JOINT LeftShoulder
            {
                OFFSET 3.573296 18.396038 -0.314103
                CHANNELS 3 Zrotation Xrotation Yrotation
                JOINT LeftArm
                {
                    OFFSET 10.880760 0.000000 0.000000
                    CHANNELS 3 Zrotation Xrotation Yrotation
                    JOINT LeftForeArm
                    {
                        OFFSET 27.185530 0.000000 0.000000
                        CHANNELS 3 Zrotation Xrotation Yrotation
                        JOINT LeftHand
                        {
                            OFFSET 27.825975 0.000000 0.000000
                            CHANNELS 3 Zrotation Xrotation Yrotation
                            End Site
                            {
                                OFFSET 13.236923 0.000000 0.000000
                            }
                        }
                    }
                }
            }
            JOINT RightShoulder
            {
                OFFSET -3.474926 18.396038 -0.314103
                CHANNELS 3 Zrotation Xrotation Yrotation
                JOINT RightArm
                {
                    OFFSET -10.880760 0.000000 0.000000
                    CHANNELS 3 Zrotation Xrotation Yrotation
                    JOINT RightForeArm
                    {
                        OFFSET -27.185530 0.000000 0.000000
                        CHANNELS 3 Zrotation Xrotation Yrotation
                        JOINT RightHand
                        {
                            OFFSET -27.825975 0.000000 0.000000
                            CHANNELS 3 Zrotation Xrotation Yrotation
                            End Site
                            {
                                OFFSET -13.236923 0.000000 0.000000
                            }
                        }
                    }
                }
            }
        }
    }
    JOINT LeftUpLeg
    {
        OFFSET 8.824615 0.000000 0.000000
        CHANNELS 3 Zrotation Xrotation Yrotation
        JOINT LeftLeg
        {
            OFFSET -0.000000 -35.111282 0.000000
            CHANNELS 3 Zrotation Xrotation Yrotation
            JOINT LeftFoot
            {
                OFFSET -0.000000 -42.324711 0.000000
                CHANNELS 3 Zrotation Xrotation Yrotation
                JOINT LeftToeBase
                {
                    OFFSET -0.000000 -5.735999 13.236923
                    CHANNELS 3 Zrotation Xrotation Yrotation
                    End Site
                    {
                        OFFSET -0.000000 0.000000 3.529846
                    }
                }
            }
        }
    }
    JOINT RightUpLeg
    {
        OFFSET -8.824615 0.000000 0.000000
        CHANNELS 3 Zrotation Xrotation Yrotation
        JOINT RightLeg
        {
            OFFSET -0.000000 -35.111282 0.000000
            CHANNELS 3 Zrotation Xrotation Yrotation
            JOINT RightFoot
            {
                OFFSET -0.000000 -42.324711 0.000000
                CHANNELS 3 Zrotation Xrotation Yrotation
                JOINT RightToeBase
                {
                    OFFSET -0.000000 -5.735999 13.236923
                    CHANNELS 3 Zrotation Xrotation Yrotation
                    End Site
                    {
                        OFFSET -0.000000 0.000000 3.529846
                    }
                }
            }
        }
    }
}
MOTION
Frames:    8
Frame Time:    0.008333
12.168913    83.188278    110.226273    -5.482331    -6.293811    -175.958221    -2.128138    -10.940286    4.706423    -1.316850    0.819495    4.919683    -5.012390    8.526587    -5.929938    8.422064    -2.168134    -4.455368    16.858223    0.105970    -3.096108    -14.468588    -0.472987    -7.067698    11.766371    0.656768    -9.594234    -1.997706    1.688433    -2.343323    -13.080936    0.418161    -0.141552    11.967598    -16.650074    6.965853    -30.537100    -21.214678    51.913334    -8.578630    -6.832496    5.986320    12.000588    -27.631281    -3.997713    -1.956363    37.860970    11.157946    -14.147278    11.433021    -23.698036    -1.486923    -5.550128    1.665596    -16.950279    -3.002033    -6.854227    3.276542    9.461681    -0.907920    6.628010    -7.187685    -12.442171    -0.510078    -0.191264    0.551834    
11.701984    83.105362    110.083435    -5.246515    -6.332143    -176.245651    -2.271130    -11.035279    4.411255    -0.984816    0.660831    4.636381    -4.736890    8.459615    -5.675067    8.392986    -2.142321    -4.213146    17.273724    -0.375026    -3.238873    -13.850156    -0.941003    -7.299240    12.681266    0.298626    -10.161937    -2.481798    1.486675    -2.581940    -13.165636    0.626810    -0.354794    11.685057    -15.902611    6.266174    -30.212692    -19.896626    50.778152    -8.623844    -5.992327    6.033899    11.871519    -26.303530    -3.953504    -1.682150    36.313454    10.579540    -14.169432    10.202708    -23.199236    -1.405289    -5.801079    1.574944    -17.080318    -3.106398    -6.814485    3.302402    9.546726    -0.989805    7.055340    -7.029240    -12.142647    -0.540746    -0.283018    0.585086    
11.224084    83.021423    109.947495    -5.010522    -6.368111    -176.518494    -2.429860    -11.119525    4.107964    -0.641963    0.512589    4.347424    -4.448275    8.389415    -5.432059    8.365008    -2.111864    -3.984630    17.663841    -0.852704    -3.380468    -13.280195    -1.457667    -7.572877    13.651602    -0.143990    -10.783242    -2.847444    1.220949    -2.829192    -13.219752    0.859649    -0.573450    11.480753    -15.240612    5.622159    -29.785076    -18.605219    49.689602    -8.777100    -5.216789    6.044528    11.744496    -25.039755    -3.902695    -1.446391    34.841850    10.041241    -14.176321    8.929908    -22.697655    -1.324844    -5.993364    1.485363    -17.229275    -3.250692    -6.783485    3.335589    9.705047    -1.072412    7.496558    -6.853232    -11.847513    -0.566826    -0.401140    0.613404    
10.732967    82.936745    109.818672    -4.773638    -6.401482    -176.777878    -2.603858    -11.192794    3.795349    -0.289057    0.374622    4.051522    -4.144717    8.316853    -5.199687    8.337894    -2.076758    -3.768775    18.028372    -1.326572    -3.523670    -12.758835    -2.029666    -7.892069    14.681618    -0.686323    -11.468867    -3.083641    0.879142    -3.080174    -13.240391    1.116100    -0.800654    11.349827    -14.670182    5.029484    -29.249144    -17.342505    48.641319    -9.026340    -4.508750    6.028073    11.619178    -23.835955    -3.841347    -1.245016    33.441166    9.539398    -14.166706    7.622448    -22.196154    -1.245180    -6.114431    1.396388    -17.399645    -3.440187    -6.761567    3.377255    9.944447    -1.154792    7.953986    -6.654453    -11.555875    -0.588150    -0.548829    0.636611    
10.233712    82.852943    109.699249    -4.539080    -6.431800    -177.021439    -2.789606    -11.253925    3.476995    0.066623    0.249060    3.751808    -3.828788    8.242832    -4.979989    8.312051    -2.036886    -3.567539    18.361797    -1.789101    -3.668823    -12.294444    -2.653840    -8.255763    15.759250    -1.337077    -12.219237    -3.175518    0.452926    -3.324465    -13.224039    1.391154    -1.036210    11.289839    -14.202290    4.492945    -28.613760    -16.131016    47.640587    -9.351169    -3.880366    5.993568    11.496380    -22.706308    -3.765254    -1.076092    32.127033    9.076088    -14.139417    6.308140    -21.705467    -1.166664    -6.154633    1.308445    -17.592176    -3.677977    -6.748862    3.428577    10.269477    -1.235641    8.423165    -6.430203    -11.270612    -0.604237    -0.728170    0.654186    
9.721105    82.770027    109.588707    -4.305006    -6.459068    -177.252472    -2.986843    -11.303169    3.150123    0.425069    0.135119    3.445324    -3.496429    8.167673    -4.769916    8.286727    -1.992238    -3.378208    18.665565    -2.242057    -3.820550    -11.884576    -3.338265    -8.668918    16.891577    -2.118496    -13.050682    -3.113188    -0.075920    -3.553152    -13.167208    1.685163    -1.284388    11.296112    -13.832141    4.004323    -27.880804    -14.966865    46.672466    -9.734568    -3.327112    5.948178    11.373932    -21.639021    -3.668433    -0.932795    30.885052    8.641015    -14.093477    4.987501    -21.225594    -1.087698    -6.111306    1.219778    -17.811172    -3.970886    -6.744549    3.491707    10.689147    -1.316169    8.909511    -6.172679    -10.987863    -0.614523    -0.942623    0.665521    
9.208478    82.691032    109.490540    -4.077921    -6.482183    -177.466339    -3.187714    -11.339287    2.823952    0.772968    0.036476    3.140300    -3.155480    8.093731    -4.573921    8.262013    -1.943660    -3.204860    18.931013    -2.670409    -3.977835    -11.542781    -4.066418    -9.121702    18.043844    -3.024483    -13.948979    -2.889869    -0.705061    -3.748191    -13.069030    1.988139    -1.540803    11.365100    -13.566012    3.574214    -27.084217    -13.887613    45.755966    -10.144775    -2.862602    5.899508    11.254083    -20.661007    -3.548641    -0.813807    29.746605    8.238625    -14.029953    3.707042    -20.772932    -1.009851    -5.987699    1.132197    -18.053131    -4.315287    -6.746846    3.567239    11.197241    -1.396312    9.400784    -5.882715    -10.713236    -0.618227    -1.188536    0.669763    
8.681691    82.614670    109.402237    -3.851599    -6.501386    -177.671021    -3.394670    -11.363484    2.490177    1.116380    -0.049525    2.828562    -2.796179    8.020989    -4.384895    8.236947    -1.890769    -3.041023    19.164783    -3.082330    -4.148799    -11.261385    -4.857677    -9.626850    19.238789    -4.093960    -14.946758    -2.496145    -1.464082    -3.897347    -12.925049    2.305722    -1.813360    11.493944    -13.388142    3.186652    -26.217829    -12.867235    44.860527    -10.573007    -2.469012    5.850008    11.132149    -19.741724    -3.398923    -0.709970    28.676382    7.849839    -13.947458    2.441629    -20.337534    -0.930529    -5.786602    1.042844    -18.326311    -4.723526    -6.753358    3.659436    11.810300    -1.479706    9.910485    -5.546926    -10.438298    -0.615442    -1.471968    0.667010    
